<svg width="40" height="40" viewBox="0 0 40 40" fill="none" xmlns="http://www.w3.org/2000/svg">
<circle cx="20" cy="20" r="19.5" stroke="white"/>
<path d="M20.4943 25.1392C22.468 25.1392 23.9347 23.9013 23.9347 22.2358C23.9347 20.9432 23.169 20.0036 21.8864 19.7898V19.7102C22.9155 19.397 23.5568 18.5518 23.5568 17.4034C23.5568 15.9616 22.4183 14.679 20.5341 14.679C18.7741 14.679 17.3125 15.7628 17.2528 17.3636H18.446C18.4908 16.3494 19.4553 15.7528 20.5142 15.7528C21.6378 15.7528 22.3636 16.4339 22.3636 17.4631C22.3636 18.5369 21.5234 19.233 20.3153 19.233H19.5V20.3267H20.3153C21.8615 20.3267 22.7216 21.1122 22.7216 22.2358C22.7216 23.3146 21.782 24.0455 20.4744 24.0455C19.2962 24.0455 18.3615 23.4389 18.2869 22.4545H17.0341C17.1087 24.0554 18.5206 25.1392 20.4943 25.1392Z" fill="white"/>
</svg>
