<svg width="40" height="40" viewBox="0 0 40 40" fill="none" xmlns="http://www.w3.org/2000/svg">
<circle cx="20" cy="20" r="19.5" stroke="white"/>
<path d="M20.2358 25.1392C22.1747 25.1392 23.5966 23.7074 23.5966 21.7585C23.5966 19.7848 22.2244 18.3381 20.3551 18.3381C19.669 18.3381 19.0028 18.5817 18.5852 18.9148H18.5256L18.8835 15.9119H23.1392V14.8182H17.8494L17.233 19.8295L18.3864 19.9688C18.8089 19.6655 19.5298 19.4467 20.1562 19.4517C21.4538 19.4616 22.4034 20.446 22.4034 21.7784C22.4034 23.0859 21.4886 24.0455 20.2358 24.0455C19.1918 24.0455 18.3615 23.3743 18.267 22.4545H17.0739C17.1484 24.0057 18.4858 25.1392 20.2358 25.1392Z" fill="white"/>
</svg>
