<svg width="359" height="110" viewBox="0 0 359 110" fill="none" xmlns="http://www.w3.org/2000/svg">
<path d="M7.63065 107H30.4886L73.9545 20.6307V2.27272H0.471558V20.375H51.0454V21.0909L7.63065 107Z" fill="url(#paint0_linear_47_31)"/>
<path d="M119.855 0.840901C96.4346 0.738626 80.6334 16.0795 80.7357 37.1477C80.7868 56.6818 94.338 70.8466 112.9 70.8466C124.406 70.8466 134.633 65.2727 139.287 56.0682H140.003C139.952 76.8295 132.741 89.4602 119.088 89.4602C111.06 89.4602 105.281 85.0625 103.594 77.4432H81.7584C83.8039 95.0852 98.1221 108.432 119.088 108.432C145.014 108.432 161.736 87.4659 161.685 51.9261C161.633 13.9829 141.383 0.943177 119.855 0.840901ZM120.008 18.2273C130.185 18.2273 137.702 26.5114 137.804 36.4829C137.855 46.5057 129.929 54.7898 119.804 54.7898C109.577 54.7898 102.264 46.8125 102.213 36.5341C102.111 26.3068 109.73 18.2273 120.008 18.2273Z" fill="url(#paint1_linear_47_31)"/>
<path d="M212.328 109.301C238.663 109.301 254.567 89.2557 254.618 54.7386C254.669 20.4773 238.561 0.840901 212.328 0.840901C186.044 0.840901 170.089 20.4261 170.038 54.7386C169.936 89.1534 185.942 109.25 212.328 109.301ZM212.328 90.9432C200.311 90.9432 192.538 78.875 192.589 54.7386C192.64 30.9602 200.362 18.9943 212.328 18.9943C224.243 18.9943 232.015 30.9602 232.015 54.7386C232.067 78.875 224.294 90.9432 212.328 90.9432Z" fill="url(#paint2_linear_47_31)"/>
<path d="M318.595 69.108C342.936 69.108 358.226 56.375 358.123 36.0739C358.226 16.7443 343.447 2.27272 318.595 2.27272H277.686V51.3636H262.805V69.108H277.686V75.858H262.805V93.6023H277.686V107H299.675V93.6023H322.532V75.858H299.675V69.108H318.595ZM299.675 51.3636V20.2727H318.595C330.305 20.2727 336.032 27.3295 335.981 36.3295C336.032 45.5341 330.407 51.3636 317.981 51.3636H299.675Z" fill="url(#paint3_linear_47_31)"/>
<defs>
<linearGradient id="paint0_linear_47_31" x1="364" y1="-2.00002" x2="-9.49999" y2="107" gradientUnits="userSpaceOnUse">
<stop stop-color="#BFBFBF"/>
<stop offset="1" stop-color="#484848"/>
</linearGradient>
<linearGradient id="paint1_linear_47_31" x1="364" y1="-2.00002" x2="-9.49999" y2="107" gradientUnits="userSpaceOnUse">
<stop stop-color="#BFBFBF"/>
<stop offset="1" stop-color="#484848"/>
</linearGradient>
<linearGradient id="paint2_linear_47_31" x1="364" y1="-2.00002" x2="-9.49999" y2="107" gradientUnits="userSpaceOnUse">
<stop stop-color="#BFBFBF"/>
<stop offset="1" stop-color="#484848"/>
</linearGradient>
<linearGradient id="paint3_linear_47_31" x1="364" y1="-2.00002" x2="-9.49999" y2="107" gradientUnits="userSpaceOnUse">
<stop stop-color="#BFBFBF"/>
<stop offset="1" stop-color="#484848"/>
</linearGradient>
</defs>
</svg>
