<svg width="430" height="408" viewBox="0 0 430 408" fill="none" xmlns="http://www.w3.org/2000/svg">
<rect width="430" height="408" rx="100" fill="#808080"/>
<path d="M186 190V170.128H211.632V154.432H186V89.2H164.832L64.752 154.576V170.128H164.976V190H186ZM91.968 154.432L164.976 107.2V154.432H91.968ZM341.391 190V170.128H367.023V154.432H341.391V89.2H320.223L220.143 154.576V170.128H320.367V190H341.391ZM247.359 154.432L320.367 107.2V154.432H247.359ZM89.952 334L130.992 295.12L172.752 334H201.264L145.968 282.88L200.112 233.2H172.896L132.72 270.928L91.968 233.2H63.6L117.456 282.88L62.16 334H89.952Z" fill="#D7FC51"/>
</svg>
