<svg width="13" height="13" viewBox="0 0 13 13" fill="none" xmlns="http://www.w3.org/2000/svg">
<path fill-rule="evenodd" clip-rule="evenodd" d="M6.5 13C10.0899 13 13 10.0899 13 6.5C13 2.91015 10.0899 0 6.5 0C2.91015 0 0 2.91015 0 6.5C0 10.0899 2.91015 13 6.5 13ZM6 3.5C6 3.22385 6.22388 3 6.5 3C6.77612 3 7 3.22385 7 3.5V6H9.5C9.77612 6 10 6.22385 10 6.5C10 6.77615 9.77612 7 9.5 7H7V9.5C7 9.77615 6.77612 10 6.5 10C6.22388 10 6 9.77615 6 9.5V7H3.5C3.22388 7 3 6.77615 3 6.5C3 6.22385 3.22388 6 3.5 6H6V3.5Z" fill="#00BD9D"/>
</svg>
